<svg width="48" height="48" viewBox="0 0 48 48" fill="none" xmlns="http://www.w3.org/2000/svg">
<g clip-path="url(#clip0_804_1428)">
<g clip-path="url(#clip1_804_1428)">
<path fill-rule="evenodd" clip-rule="evenodd" d="M25.7578 1.01336L24.3011 0.571648C23.7181 0.391214 23.1154 0.728102 22.9394 1.29912L22.9387 1.30147L21.345 6.60074C21.2852 6.79314 21.0852 6.90152 20.8877 6.84618L19.1681 6.32248L14.3411 4.85962C13.7581 4.67914 13.1567 5.01646 12.9808 5.5875L12.4673 7.30069C12.2889 7.88244 12.6215 8.48627 13.1924 8.66377L17.0504 9.83279C17.2397 9.89222 17.3506 10.0934 17.2942 10.2955L10.7725 32.0367C10.7126 32.2291 10.5125 32.3375 10.315 32.282L6.97454 31.2707C6.47674 31.1183 5.94018 31.3436 5.69477 31.8092L4.76024 33.6038C4.44531 34.209 4.75815 34.955 5.40879 35.1498L11.8102 37.0908C11.9994 37.1503 12.1095 37.3535 12.0532 37.5555L10.3418 43.255C10.1634 43.8368 10.496 44.4406 11.0669 44.6181L11.0694 44.6189L12.525 45.0603C13.108 45.2407 13.7093 44.9034 13.8853 44.3324L13.8861 44.3299L15.5988 38.6258C15.6587 38.4333 15.8609 38.3255 16.0585 38.3811L19.2585 39.3454C19.4477 39.4049 19.5585 39.606 19.5022 39.808L19.5016 39.8102L17.7902 45.5097C17.6118 46.0914 17.9444 46.6952 18.5153 46.8728L18.5177 46.8735L19.9733 47.3149C20.5563 47.4954 21.1577 47.1581 21.3337 46.587L21.3345 46.5843L23.0384 40.8975C23.0988 40.697 23.3039 40.5957 23.4935 40.6592C24.9007 41.1226 27.6351 41.788 30.4087 41.5315C33.1948 41.2738 36.064 40.0771 37.6138 36.7785C39.138 33.5344 38.7708 31.0699 37.7198 29.2735C36.9139 27.8961 35.7241 26.9423 34.7649 26.3305C35.9303 26.1728 36.9679 25.5435 37.804 24.7302C38.8449 23.7176 39.6111 22.3861 39.9691 21.1947C40.4857 19.4755 40.4389 17.9775 40.0276 16.6872C39.6175 15.4006 38.8523 14.3426 37.9644 13.4865C36.196 11.7815 33.9043 10.8426 32.7967 10.4591C32.6193 10.3964 32.5196 10.2013 32.5759 10.0131L34.1695 4.70494C34.348 4.12311 34.0154 3.51914 33.4444 3.34161L31.9863 2.89946C31.4033 2.71903 30.802 3.05635 30.626 3.62736L30.6253 3.62972L29.0316 8.9291C28.9716 9.12155 28.7715 9.22989 28.5739 9.17432L25.1336 8.13577C24.9445 8.07628 24.8338 7.87527 24.89 7.67328L26.4829 2.37652C26.6614 1.79474 26.3287 1.19087 25.7578 1.01336ZM21.197 20.8543L23.6884 12.5646C23.7446 12.3826 23.9311 12.272 24.1118 12.3079C29.7424 13.4757 31.8266 15.4183 32.555 16.9572C32.9213 17.7309 32.9611 18.4333 32.9109 18.9409C32.8858 19.1952 32.8381 19.4001 32.7977 19.5391C32.7775 19.6085 32.7592 19.6612 32.7466 19.6949C32.7404 19.7118 32.7355 19.724 32.7326 19.7311L32.7295 19.7385L32.7208 19.7582L32.7141 19.7802C32.3087 21.129 31.5559 21.9375 30.6323 22.4008C29.6951 22.871 28.5511 23.0005 27.355 22.9217C24.9595 22.7639 22.4861 21.7808 21.3913 21.2925C21.2281 21.2197 21.1415 21.0307 21.1956 20.8586L21.197 20.8543ZM17.1293 34.0229L19.813 25.0709C19.8646 24.9041 20.0423 24.7865 20.2566 24.8176C26.1709 25.6778 28.7257 27.8532 29.8276 29.7308C30.3827 30.6768 30.5828 31.5692 30.6447 32.2227C30.6757 32.5495 30.672 32.8159 30.661 32.9981C30.6556 33.0891 30.6483 33.1589 30.6426 33.2044L30.6367 33.248C30.623 33.293 30.6087 33.3374 30.594 33.3813C30.1712 34.6415 29.3519 35.4039 28.3081 35.8387C27.205 36.2983 25.8377 36.3959 24.4086 36.2785C22.2846 36.1041 20.1 35.4621 18.6061 34.9393C18.0904 34.7588 17.657 34.5926 17.3368 34.4646C17.1668 34.3972 17.0741 34.2032 17.1293 34.0229Z" fill="#27282B"/>
</g>
</g>
<defs>
<clipPath id="clip0_804_1428">
<rect width="48" height="48" rx="10" fill="white"/>
</clipPath>
<clipPath id="clip1_804_1428">
<rect width="48" height="48" fill="white"/>
</clipPath>
</defs>
</svg>
