<svg width="20" height="20" viewBox="0 0 20 20" fill="none" xmlns="http://www.w3.org/2000/svg">
<path d="M7.5013 8.74998C8.6519 8.74998 9.58464 7.81724 9.58464 6.66665C9.58464 5.51605 8.6519 4.58331 7.5013 4.58331C6.35071 4.58331 5.41797 5.51605 5.41797 6.66665C5.41797 7.81724 6.35071 8.74998 7.5013 8.74998Z" stroke="#FDBA74" stroke-width="1.25"/>
<path d="M12.5013 8.74998C13.6519 8.74998 14.5846 7.81724 14.5846 6.66665C14.5846 5.51605 13.6519 4.58331 12.5013 4.58331C11.3507 4.58331 10.418 5.51605 10.418 6.66665C10.418 7.81724 11.3507 8.74998 12.5013 8.74998Z" stroke="#FDBA74" stroke-width="1.25"/>
<path d="M5.83203 15V13.3334C5.83203 12.8913 6.00763 12.4674 6.32019 12.1548C6.63275 11.8423 7.05667 11.6667 7.4987 11.6667H12.4987C12.9407 11.6667 13.3646 11.8423 13.6772 12.1548C13.9898 12.4674 14.1654 12.8913 14.1654 13.3334V15" stroke="#FDBA74" stroke-width="1.25" stroke-linecap="round"/>
</svg>
