<svg width="20" height="20" viewBox="0 0 20 20" fill="none" xmlns="http://www.w3.org/2000/svg">
<path d="M9.9987 1.66669L3.33203 4.16669V9.24169C3.33203 13.45 6.1737 17.375 9.9987 18.3334C13.8237 17.375 16.6654 13.45 16.6654 9.24169V4.16669L9.9987 1.66669Z" stroke="#FDBA74" stroke-width="1.66667" stroke-linecap="round" stroke-linejoin="round"/>
<path d="M9.16933 7.23104V6.37877H9.55759V7.23104H9.16933ZM10.05 7.23104V6.37877H10.4383V7.23104H10.05ZM9.16933 12.4394V11.5871H9.55759V12.4394H9.16933ZM10.05 12.4394V11.5871H10.4383V12.4394H10.05ZM8.21763 11.8333V6.98483H10.1589C10.5156 6.98483 10.8131 7.0377 11.0514 7.14345C11.2898 7.24919 11.4689 7.39597 11.5888 7.58379C11.7088 7.77002 11.7688 7.98467 11.7688 8.22773C11.7688 8.41712 11.7309 8.58363 11.6551 8.72725C11.5794 8.8693 11.4752 8.98609 11.3426 9.07763C11.2116 9.16759 11.0617 9.23151 10.8928 9.26939V9.31674C11.0775 9.32463 11.2503 9.37672 11.4113 9.47299C11.5738 9.56927 11.7056 9.70421 11.8066 9.87782C11.9077 10.0499 11.9582 10.255 11.9582 10.4934C11.9582 10.7506 11.8942 10.9803 11.7664 11.1823C11.6401 11.3827 11.4531 11.5413 11.2053 11.6581C10.9575 11.7749 10.6521 11.8333 10.2891 11.8333H8.21763ZM9.24272 10.9952H10.0784C10.3641 10.9952 10.5724 10.9408 10.7034 10.8319C10.8344 10.7214 10.8999 10.5746 10.8999 10.3916C10.8999 10.2574 10.8676 10.139 10.8029 10.0364C10.7381 9.93385 10.6458 9.85336 10.5259 9.79496C10.4075 9.73656 10.2662 9.70737 10.1021 9.70737H9.24272V10.9952ZM9.24272 9.01371H10.0027C10.1431 9.01371 10.2678 8.98925 10.3767 8.94032C10.4872 8.88982 10.574 8.81879 10.6371 8.72725C10.7018 8.63571 10.7342 8.52602 10.7342 8.39818C10.7342 8.22299 10.6719 8.08173 10.5472 7.97441C10.4241 7.86709 10.2489 7.81343 10.0216 7.81343H9.24272V9.01371Z" fill="#FDBA74"/>
</svg>
