<?xml version="1.0" encoding="UTF-8"?>
<svg version="1.1" xmlns="http://www.w3.org/2000/svg" width="512" height="512">
<path d="M0 0 C4.17752218 3.8390449 7.66755215 8.09273051 8.3260498 13.85131836 C8.44684688 27.52441885 6.42297303 40.94899158 4.56720543 54.46922684 C4.08311725 58.01288678 3.61116115 61.55816335 3.13781738 65.10327148 C2.24312192 71.79042592 1.33780767 78.47609597 0.42849588 85.16127682 C-0.60767861 92.78311177 -1.63174082 100.40655926 -2.65487957 108.03015327 C-4.75661926 123.68857795 -6.87326529 139.34494931 -9 155 C-7.86597748 155.00586624 -6.73195496 155.01173248 -5.56356812 155.01777649 C5.17499221 155.07523419 15.9133545 155.14811428 26.65171242 155.23571491 C32.17111345 155.2802553 37.69044344 155.31954662 43.20996094 155.34643555 C48.54638729 155.37263243 53.88253781 155.41314832 59.21879196 155.46318626 C61.24467893 155.47974494 63.27061349 155.49132713 65.29655838 155.49761391 C96.44774102 155.60396955 96.44774102 155.60396955 106 165 C106.55171875 165.49113281 107.1034375 165.98226562 107.671875 166.48828125 C113.42381653 172.2259853 115.56684267 180.08239028 116.265625 188.015625 C115.86376543 203.04517296 105.24398028 215.23939275 96.67431641 226.73291016 C94.05522092 230.27926779 91.52837673 233.88869334 89 237.5 C84.34012782 244.1302621 79.61053865 250.70730889 74.85546875 257.26953125 C71.20004412 262.32082208 67.58642038 267.39952352 64 272.5 C59.33863251 279.12922712 54.61055569 285.70728537 49.85546875 292.26953125 C46.20004412 297.32082208 42.58642038 302.39952352 39 307.5 C34.33863251 314.12922712 29.61055569 320.70728537 24.85546875 327.26953125 C21.20004412 332.32082208 17.58642038 337.39952352 14 342.5 C9.33863251 349.12922712 4.61055569 355.70728537 -0.14453125 362.26953125 C-3.79995637 367.32082276 -7.41353602 372.39955362 -11 377.5 C-15.70461222 384.18963799 -20.45943189 390.84099456 -25.27416992 397.4519043 C-27.82398154 400.95755911 -30.34023112 404.47453073 -32.76171875 408.0703125 C-37.90957001 415.66426464 -42.44357782 422.04781259 -52 424 C-59.28282684 424.48552179 -64.57804718 423.17760634 -70.75 419.25 C-75.2681784 414.7318216 -77.99498167 409.53094703 -78.00415039 403.07974243 C-77.17521693 389.43549313 -75.27155884 375.93786143 -73.4375 362.3984375 C-73.0821401 359.74530986 -72.72720378 357.09212884 -72.37280273 354.43887329 C-71.63339486 348.90975959 -70.88995475 343.3812013 -70.14355469 337.85302734 C-69.09242811 330.06784484 -68.0489137 322.28165549 -67.00678062 314.49526477 C-66.19352241 308.42112089 -65.37810303 302.3472669 -64.5625 296.2734375 C-64.38951385 294.9849226 -64.21652771 293.6964077 -64.03829956 292.36884689 C-63.54879513 288.72670209 -63.05787047 285.08475191 -62.56640625 281.44287109 C-62.42196075 280.36749084 -62.27751526 279.2921106 -62.12869263 278.18414307 C-61.48737797 273.44265768 -60.829459 268.7131729 -60 264 C-61.15543304 264.00444122 -62.31086609 264.00888245 -63.50131226 264.01345825 C-74.41756463 264.05409227 -85.33380155 264.08402655 -96.25011253 264.10362434 C-101.8615981 264.11403862 -107.47302236 264.12815468 -113.08447266 264.15087891 C-118.5050275 264.17269142 -123.92552356 264.18458633 -129.34611893 264.18975449 C-131.40884958 264.19343518 -133.47157721 264.20062249 -135.53428268 264.21146011 C-138.43487117 264.22608685 -141.33522012 264.22797329 -144.23583984 264.22705078 C-145.07885651 264.23424133 -145.92187317 264.24143188 -146.79043579 264.24884033 C-157.54462696 264.21209664 -167.57026382 262.30996848 -175.6875 254.875 C-182.60177913 247.54934499 -185.41369727 238.87411261 -185.26953125 228.9921875 C-184.35998918 218.89495239 -178.77835335 211.00485466 -173 203 C-172.28529541 202.00371582 -172.28529541 202.00371582 -171.55615234 200.98730469 C-168.8356921 197.19775431 -166.10153844 193.41839975 -163.359375 189.64453125 C-160.20068578 185.29000073 -157.0927207 180.90153466 -154 176.5 C-149.3388829 169.87059929 -144.61055292 163.2927108 -139.85546875 156.73046875 C-136.20004412 151.67917792 -132.58642038 146.60047648 -129 141.5 C-124.33863251 134.87077288 -119.61055569 128.29271463 -114.85546875 121.73046875 C-111.20004412 116.67917792 -107.58642038 111.60047648 -104 106.5 C-99.33863251 99.87077288 -94.61055569 93.29271463 -89.85546875 86.73046875 C-86.20004412 81.67917792 -82.58642038 76.60047648 -79 71.5 C-74.33863251 64.87077288 -69.61055569 58.29271463 -64.85546875 51.73046875 C-61.20004137 46.67917412 -57.58666941 41.60030428 -54 36.5 C-48.19477482 28.25173854 -42.33179455 20.04701807 -36.38330078 11.90136719 C-35.20207859 10.27775999 -34.03508944 8.64381379 -32.87109375 7.0078125 C-28.90109225 1.59013708 -25.39545885 -1.29853206 -19.0625 -3.75 C-11.73400753 -4.63830212 -6.31372767 -4.00297337 0 0 Z M-48 104 C-49.79576354 106.24470443 -51.5334364 108.50795414 -53.25 110.8125 C-53.78431641 111.52664062 -54.31863281 112.24078125 -54.86914062 112.9765625 C-59.46897523 119.17750368 -63.81901319 125.53314429 -68.14160156 131.92895508 C-72.08579799 137.73777683 -76.22374393 143.35936869 -80.48046875 148.94140625 C-84.3246482 154.0165303 -87.93563965 159.22542399 -91.5 164.5 C-95.9771537 171.12533671 -100.61976636 177.56958578 -105.46948242 183.92602539 C-109.99017184 189.8922017 -114.20819462 196.04896894 -118.37304688 202.26757812 C-121.61097481 207.07667006 -125.02781673 211.65529218 -128.6862793 216.15454102 C-130.19331084 217.89400496 -130.19331084 217.89400496 -130 220 C-128.17288986 220.00546844 -128.17288986 220.00546844 -126.30886841 220.01104736 C-114.80379945 220.04806255 -103.29899654 220.10590671 -91.79413033 220.18390274 C-85.87999522 220.22333411 -79.96600804 220.25554403 -74.05175781 220.27099609 C-68.33923946 220.28619102 -62.62712792 220.32068753 -56.91479111 220.36830902 C-54.74046244 220.38309348 -52.56607569 220.39103932 -50.39169693 220.39188385 C-47.33507671 220.39426405 -44.2795712 220.4214291 -41.22314453 220.45410156 C-39.888489 220.44655602 -39.888489 220.44655602 -38.52687073 220.43885803 C-31.35106589 220.55676281 -24.19850562 222.11192127 -18.74609375 227.03515625 C-18.09833984 228.03869141 -18.09833984 228.03869141 -17.4375 229.0625 C-16.98246094 229.73410156 -16.52742188 230.40570313 -16.05859375 231.09765625 C-11.02448525 240.14419072 -14.35861614 253.4211621 -15.75 263.1484375 C-16.02131695 265.12984219 -16.29262911 267.11124754 -16.56365967 269.09269142 C-16.94000317 271.82865243 -17.32417031 274.56349048 -17.70849609 277.29833984 C-18.38390508 282.10992178 -19.0513555 286.92259433 -19.71191406 291.73623657 C-20.0630215 294.28899398 -20.4189205 296.84109826 -20.78027344 299.39242554 C-21.55209734 304.976356 -22.23138516 310.36101976 -22 316 C-17.86387255 312.30134757 -15.05238975 307.8322271 -12 303.25 C-7.8153557 297.04387967 -3.54386094 290.94827189 1 285 C5.35711134 279.28740686 9.47739459 273.45269161 13.5 267.5 C17.98072059 260.86938497 22.62847475 254.42123496 27.48046875 248.05859375 C31.90934116 242.21155222 36.02204367 236.17132223 40.12475586 230.09277344 C44.24171816 224.02488802 48.55395795 218.13570273 53.04296875 212.33789062 C53.50445312 211.73654297 53.9659375 211.13519531 54.44140625 210.515625 C54.84045166 210.00290039 55.23949707 209.49017578 55.65063477 208.96191406 C56.90333581 207.14054522 57.99436065 205.29904189 59.08433533 203.37738037 C59.71650467 202.26284485 60.34867401 201.14830933 61 200 C59.76717789 199.99635437 58.53435577 199.99270874 57.26417542 199.98895264 C45.62635112 199.95195596 33.98879029 199.89413189 22.35116673 199.81609726 C16.36862173 199.77664653 10.38622341 199.74444606 4.40356445 199.72900391 C-1.37378611 199.71382179 -7.15073339 199.67934784 -12.92790413 199.63169098 C-15.12817943 199.61689336 -17.32851231 199.60895992 -19.5288372 199.60811615 C-22.61918636 199.60573994 -25.70842693 199.57860652 -28.79858398 199.54589844 C-29.70130035 199.5509288 -30.60401672 199.55595917 -31.53408813 199.56114197 C-38.16225383 199.45313332 -44.54026355 198.14339007 -49.59271908 193.55291367 C-55.5223233 186.70558019 -55.60572545 180.52131718 -55.20410156 171.83050537 C-54.4446583 161.29845359 -52.76996546 150.83050804 -51.29150391 140.37908936 C-50.61327398 135.57084249 -49.95001919 130.76051026 -49.28808594 125.94999695 C-48.93629243 123.40074099 -48.58034542 120.85205387 -48.21972656 118.30403137 C-48.05956055 117.15480698 -47.89939453 116.00558258 -47.734375 114.8215332 C-47.59225586 113.81500198 -47.45013672 112.80847076 -47.30371094 111.7714386 C-47.01681637 109.15345364 -46.94347179 106.63087322 -47 104 C-47.33 104 -47.66 104 -48 104 Z " fill="#FB923C" transform="translate(376,46)"/>
<path d="M0 0 C1.09481689 -0.00860046 2.18963379 -0.01720093 3.31762695 -0.02606201 C4.51921951 -0.03032196 5.72081207 -0.03458191 6.95881653 -0.03897095 C8.85677475 -0.05123718 8.85677475 -0.05123718 10.79307556 -0.06375122 C14.99128598 -0.08994483 19.18950622 -0.10527805 23.38777161 -0.11953735 C24.8347709 -0.12489848 26.28177013 -0.13027599 27.7287693 -0.13566971 C33.75001633 -0.1572962 39.77126071 -0.17603104 45.79253674 -0.1872921 C54.41163326 -0.20351934 63.03027815 -0.23666936 71.64920443 -0.29369295 C77.71473253 -0.33244946 83.78014014 -0.35193161 89.84578878 -0.35721266 C93.46572877 -0.36085891 97.08518677 -0.37280117 100.70499229 -0.4053154 C104.74820477 -0.44111214 108.79045227 -0.4370108 112.83381653 -0.42959595 C114.62102364 -0.45420395 114.62102364 -0.45420395 116.44433594 -0.47930908 C124.43094174 -0.41939793 129.4259017 1.06623393 135.23538494 6.59668922 C139.60585646 11.40212208 141.23904546 16.47480369 141.02839661 22.94296265 C140.03222083 30.08012076 137.21665205 35.51372353 131.59870911 39.99765015 C127.53889619 42.49599656 124.02319389 43.40432842 119.27502441 43.42132568 C118.1942865 43.42985565 117.11354858 43.43838562 116.00006104 43.44717407 C114.8243605 43.4462677 113.64865997 43.44536133 112.43733215 43.44442749 C111.19124176 43.45114471 109.94515137 43.45786194 108.66130066 43.46478271 C105.24993668 43.48051325 101.8388162 43.48713704 98.42743278 43.48841429 C96.29342661 43.48983804 94.15944579 43.49411192 92.02544594 43.49940872 C84.57271841 43.51790165 77.12006233 43.52608039 69.66731262 43.52450562 C62.73320685 43.52330487 55.79941267 43.54439572 48.86538571 43.57599294 C42.90171245 43.60219464 36.9381407 43.61287127 30.97441036 43.6115948 C27.4171924 43.61108624 23.86025139 43.6167098 20.30309105 43.6379509 C16.33209073 43.66101653 12.36151344 43.65178851 8.39045715 43.63973999 C6.6360154 43.65659851 6.6360154 43.65659851 4.84613037 43.67379761 C-2.8615763 43.614433 -8.29977837 42.58874029 -14.30363464 37.4078064 C-14.74965027 36.84964233 -15.19566589 36.29147827 -15.65519714 35.71640015 C-16.11668152 35.16081421 -16.57816589 34.60522827 -17.05363464 34.0328064 C-20.75565727 28.36187365 -21.1273897 22.74611722 -20.28019714 16.15390015 C-18.02291977 9.02936843 -14.71603023 4.84854507 -8.28019714 1.15390015 C-5.2434706 0.14165797 -3.17805578 0.01858473 0 0 Z " fill="#FB923C" transform="translate(73.28019714355469,351.8460998535156)"/>
<path d="M0 0 C1.1392392 -0.00700928 2.27847839 -0.01401855 3.45223999 -0.02124023 C7.20148409 -0.03878174 10.94996755 -0.02721024 14.69921875 -0.01367188 C17.31421045 -0.01636787 19.92920118 -0.02025119 22.54418945 -0.02526855 C28.01814954 -0.03252851 33.49189316 -0.02300101 38.96582031 -0.00390625 C45.27803427 0.01785961 51.58973128 0.01080704 57.90193272 -0.01121187 C63.99526842 -0.0316097 70.08837647 -0.02937624 76.18173218 -0.01768494 C78.76524936 -0.01502139 81.34877978 -0.01827425 83.93228149 -0.02760315 C87.54635288 -0.0377902 91.15943925 -0.02223547 94.7734375 0 C95.83549408 -0.00809692 96.89755066 -0.01619385 97.99179077 -0.02453613 C105.98086532 0.06627368 111.42860922 1.62520436 117.19921875 7.26757812 C121.19593074 13.20555022 123.59457747 19.22924878 122.38671875 26.51757812 C120.24721888 33.99309256 116.2356877 38.66798042 109.5868187 42.57532692 C107.02743778 43.67144974 105.18323483 43.77430649 102.40386963 43.78500366 C101.40023376 43.79353363 100.3965979 43.8020636 99.36254883 43.81085205 C97.71984009 43.80949249 97.71984009 43.80949249 96.04394531 43.80810547 C94.88578308 43.81482269 93.72762085 43.82153992 92.53436279 43.82846069 C88.69864634 43.84748644 84.86310448 43.85136745 81.02734375 43.85351562 C79.03548636 43.85831713 77.04362893 43.86312205 75.05177283 43.86843646 C68.78612991 43.88471628 62.52054445 43.88960594 56.25488281 43.88818359 C49.80418769 43.88698352 43.35382788 43.90805908 36.90321755 43.93967092 C31.35569578 43.96588247 25.80828316 43.97654879 20.26069999 43.97527277 C16.95159918 43.97476438 13.64286209 43.98223435 10.3338089 44.00162888 C6.63794803 44.02125921 2.94294547 44.01546092 -0.75292969 44.00341797 C-1.83997192 44.01465698 -2.92701416 44.025896 -4.04699707 44.03747559 C-11.48165526 43.97602298 -17.17257139 42.91911482 -22.671875 37.48242188 C-23.35443359 36.47888672 -23.35443359 36.47888672 -24.05078125 35.45507812 C-24.76041016 34.44767578 -24.76041016 34.44767578 -25.484375 33.41992188 C-28.70758074 27.98842984 -28.0269414 21.61718511 -27.61328125 15.51757812 C-25.58491514 9.53923591 -21.6395308 5.46980682 -16.16333008 2.40148926 C-10.869029 -0.16089725 -5.78895317 -0.04413391 0 0 Z " fill="#FB923C" transform="translate(91.61328125,116.482421875)"/>
<path d="M0 0 C1.00108292 -0.00686325 2.00216583 -0.0137265 3.03358459 -0.02079773 C6.32339905 -0.03901093 9.61273412 -0.035236 12.90258789 -0.02954102 C15.2013006 -0.03410535 17.50001194 -0.03941167 19.79872131 -0.04542542 C24.60936029 -0.05434572 29.41983317 -0.05194548 34.23046875 -0.04199219 C40.38163249 -0.03050267 46.53222215 -0.05071986 52.68331051 -0.07990932 C57.42838659 -0.09829396 62.17332565 -0.09797432 66.91842842 -0.0922718 C69.18573372 -0.09211888 71.45304848 -0.09813958 73.72031975 -0.11056328 C76.89593959 -0.12551422 80.07050588 -0.11476539 83.24609375 -0.09765625 C84.17364471 -0.10732422 85.10119568 -0.11699219 86.05685425 -0.12695312 C92.99235884 -0.04908345 99.38637799 1.29104032 104.57469082 6.18334293 C110.27382648 12.50789717 111.19920975 17.40546074 111.06665039 25.91577148 C110.37652619 32.26918296 107.34821965 36.06929679 102.75024414 40.27905273 C96.57461927 44.5641802 90.88173349 44.70161955 83.6184082 44.69458008 C82.61922363 44.7012973 81.62003906 44.70801453 80.59057617 44.7149353 C77.29478957 44.73389731 73.99920686 44.7378388 70.70336914 44.73999023 C68.40419431 44.74642004 66.10502029 44.75314854 63.80584717 44.76016235 C58.98748885 44.7721311 54.16920221 44.77584365 49.35083008 44.7746582 C43.19300726 44.77445519 37.03564686 44.80174155 30.8779335 44.83620262 C26.12853915 44.85850127 21.37925548 44.8624948 16.62981415 44.86143875 C14.36053628 44.86379084 12.09125518 44.87259212 9.82202911 44.88810349 C6.63924827 44.90782026 3.45745686 44.9019023 0.2746582 44.88989258 C-0.65243958 44.90113159 -1.57953735 44.91237061 -2.534729 44.9239502 C-9.6489158 44.85614254 -16.81056666 43.54535277 -22.26308823 38.65399742 C-27.65138419 32.78474789 -28.77891083 27.25449919 -28.62475586 19.41186523 C-28.00394134 13.43652547 -25.70467105 9.82811373 -21.56225586 5.59155273 C-14.47132896 0.81881348 -8.33120588 -0.04034548 0 0 Z " fill="#FB923C" transform="translate(49.312255859375,233.595947265625)"/>
</svg>
